<?xml version="1.0" encoding="UTF-8" standalone="no"?>
<!DOCTYPE svg PUBLIC "-//W3C//DTD SVG 1.1//EN" "http://www.w3.org/Graphics/SVG/1.1/DTD/svg11.dtd">
<svg width="100%" height="100%" viewBox="0 0 1080 1080" version="1.1" xmlns="http://www.w3.org/2000/svg" xmlns:xlink="http://www.w3.org/1999/xlink" xml:space="preserve" xmlns:serif="http://www.serif.com/" style="fill-rule:evenodd;clip-rule:evenodd;stroke-linecap:square;stroke-linejoin:round;stroke-miterlimit:1.5;">
    <g transform="matrix(1,0,0,1,-1744.75,0)">
        <g id="Logo4" transform="matrix(1,0,0,1,1744.75,0)">
            <rect x="0" y="0" width="1080" height="1080" style="fill:rgb(226,226,226);"/>
            <g transform="matrix(1,0,0,1,-526.259,132.819)">
                <g transform="matrix(0.928491,0.371356,-0.371356,0.928491,258.553,-244.146)">
                    <text x="763.215px" y="549.273px" style="font-family:'OPTIRomanaRoman-Normal';font-weight:500;font-size:16px;fill:rgb(13,47,115);">E</text>
                </g>
                <g transform="matrix(0.967715,0.252046,-0.252046,0.967715,164.459,-177.155)">
                    <text x="773.751px" y="553.385px" style="font-family:'OPTIRomanaRoman-Normal';font-weight:500;font-size:16px;fill:rgb(13,47,115);">S</text>
                </g>
                <g transform="matrix(0.990759,0.135633,-0.135633,0.990759,82.6232,-101.062)">
                    <text x="782.984px" y="555.822px" style="font-family:'OPTIRomanaRoman-Normal';font-weight:500;font-size:16px;fill:rgb(13,47,115);">T</text>
                </g>
                <g transform="matrix(0.995784,0.091728,-0.091728,0.995784,54.4094,-70.1559)">
                    <text x="790.417px" y="556.832px" style="font-family:'OPTIRomanaRoman-Normal';font-weight:500;font-size:16px;fill:rgb(13,47,115);">.</text>
                </g>
                <g transform="matrix(0.999771,-0.021402,0.021402,0.999771,-11.7477,17.1939)">
                    <text x="797.413px" y="557.44px" style="font-family:'OPTIRomanaRoman-Normal';font-weight:500;font-size:16px;fill:rgb(13,47,115);">1</text>
                </g>
                <g transform="matrix(0.98949,-0.144602,0.144602,0.98949,-72.0692,122.712)">
                    <text x="808.122px" y="557.134px" style="font-family:'OPTIRomanaRoman-Normal';font-weight:500;font-size:16px;fill:rgb(13,47,115);">9</text>
                </g>
                <g transform="matrix(0.963882,-0.266331,0.266331,0.963882,-118.38,238.113)">
                    <text x="818.713px" y="555.515px" style="font-family:'OPTIRomanaRoman-Normal';font-weight:500;font-size:16px;fill:rgb(13,47,115);">8</text>
                </g>
                <g transform="matrix(0.923863,-0.382722,0.382722,0.923863,-148.371,359.358)">
                    <text x="829.022px" y="552.592px" style="font-family:'OPTIRomanaRoman-Normal';font-weight:500;font-size:16px;fill:rgb(13,47,115);">6</text>
                </g>
            </g>
            <g transform="matrix(1.81797,0,0,1.81797,-298.017,-373.287)">
                <text x="374.861px" y="485.536px" style="font-family:'OPTIRomanaRoman-Normal';font-weight:500;font-size:90px;fill:rgb(13,47,115);">A<tspan x="415.631px " y="485.536px ">T</tspan>HEN</text>
                <g transform="matrix(90,0,0,90,607.421,575.536)">
                </g>
                <text x="374.861px" y="575.536px" style="font-family:'OPTIRomanaRoman-Normal';font-weight:500;font-size:90px;fill:rgb(13,47,115);">GRILL</text>
            </g>
            <g transform="matrix(1,0,0,1,-610.861,-5.40979)">
                <path d="M884.959,395.045C904.671,395.045 923.575,402.875 937.514,416.814C951.452,430.752 959.282,449.656 959.282,469.368L959.282,606.287C959.282,625.999 951.452,644.904 937.514,658.842C923.575,672.78 904.671,680.611 884.959,680.611L884.644,680.611C864.932,680.611 846.028,672.78 832.089,658.842C818.151,644.904 810.321,625.999 810.321,606.287L810.321,469.368C810.321,449.656 818.151,430.752 832.089,416.814C846.028,402.875 864.932,395.045 884.644,395.045L884.959,395.045ZM884.959,398.645L884.644,398.645C865.887,398.645 847.898,406.096 834.635,419.359C821.372,432.622 813.921,450.611 813.921,469.368L813.921,606.287C813.921,625.044 821.372,643.033 834.635,656.296C847.898,669.559 865.887,677.011 884.644,677.011L884.959,677.011C903.716,677.011 921.705,669.559 934.968,656.296C948.231,643.033 955.682,625.044 955.682,606.287L955.682,469.368C955.682,450.611 948.231,432.622 934.968,419.359C921.705,406.096 903.716,398.645 884.959,398.645Z" style="fill:rgb(13,47,115);"/>
            </g>
            <g transform="matrix(1,0,0,1,-610.861,-5.40979)">
                <path d="M884.645,398.645L884.647,395.045L884.958,395.045C904.67,395.045 923.575,402.875 937.514,416.814C950.523,429.823 958.211,447.158 959.178,465.438C959.248,466.743 959.282,468.054 959.282,469.368L959.282,534.874L955.682,534.874C940.939,534.874 927.002,538.354 914.651,544.539C892.118,555.822 874.858,576.1 867.594,600.652C865.148,608.917 863.836,617.666 863.836,626.719C863.836,644.151 868.703,660.456 877.151,674.346L873.537,679.776C857.936,677.419 843.383,670.135 832.089,658.842C818.151,644.904 810.321,625.999 810.321,606.287L810.321,469.368C810.321,449.656 818.151,430.752 832.089,416.814C846.028,402.875 864.932,395.045 884.644,395.045L884.644,398.645C865.887,398.645 847.898,406.096 834.635,419.359C821.372,432.622 813.921,450.611 813.921,469.368L813.921,606.287C813.921,625.044 821.372,643.033 834.635,656.296C845.381,667.043 859.23,673.973 874.075,676.217C865.295,661.781 860.236,644.836 860.236,626.719C860.236,617.312 861.601,608.22 864.142,599.631C871.69,574.118 889.625,553.045 913.039,541.32C925.876,534.892 940.36,531.274 955.682,531.274L955.682,469.368C955.682,468.117 955.649,466.87 955.584,465.628C954.663,448.233 947.347,431.738 934.968,419.359C921.705,406.096 903.716,398.645 884.959,398.645L884.645,398.645Z" style="fill:rgb(13,47,115);"/>
            </g>
            <g transform="matrix(1,0,0,1,-2244.92,-7.58209)">
                <path d="M2510.34,675.06C2510.4,675.068 2510.46,675.076 2510.53,675.083L2511.26,676.601C2511.58,677.121 2511.9,677.637 2512.23,678.15L2512.01,678.149L2513.16,680.528C2512.85,681.037 2512.53,681.542 2512.21,682.041L2509.55,682.032L2509.65,682.23C2509.14,682.167 2508.63,682.099 2508.12,682.026L2506.15,682.019C2506.08,681.906 2506.01,681.793 2505.94,681.679C2490.97,679.069 2477.04,671.906 2466.15,661.014C2452.21,647.076 2444.38,628.171 2444.38,608.46L2444.38,584.722L2447.36,584.202C2450.95,583.576 2454.65,583.249 2458.41,583.249C2474.55,583.249 2489.3,589.23 2500.57,599.095L2502.31,600.614L2501.65,602.825C2499.21,611.09 2497.89,619.839 2497.89,628.892C2497.89,645.717 2502.43,661.493 2510.34,675.06ZM2508.13,678.389C2499.35,663.953 2494.3,647.009 2494.3,628.892C2494.3,619.484 2495.66,610.392 2498.2,601.803C2487.57,592.494 2473.64,586.849 2458.41,586.849C2454.86,586.849 2451.37,587.157 2447.98,587.748L2447.98,608.46C2447.98,627.217 2455.43,645.205 2468.69,658.469C2479.44,669.215 2493.29,676.146 2508.13,678.389ZM2508.13,678.389C2508.48,678.958 2508.83,679.523 2509.19,680.085C2509.49,679.613 2509.79,679.137 2510.09,678.656C2509.43,678.576 2508.78,678.487 2508.13,678.389Z" style="fill:rgb(13,47,115);"/>
            </g>
            <g transform="matrix(1,0,0,1,-2244.92,-7.58209)">
                <path d="M2593.24,467.61C2593.31,468.916 2593.34,470.226 2593.34,471.54L2593.34,537.046L2589.74,537.046C2575,537.046 2561.06,540.526 2548.71,546.712L2545.74,548.197L2544.02,545.362C2539.11,537.28 2536.28,527.797 2536.28,517.659C2536.28,488.19 2560.18,464.258 2589.64,464.2L2593.06,464.194L2593.24,467.61ZM2589.64,467.8C2562.17,467.854 2539.88,490.174 2539.88,517.659C2539.88,527.113 2542.52,535.957 2547.1,543.493C2559.93,537.064 2574.42,533.446 2589.74,533.446L2589.74,471.54C2589.74,470.29 2589.71,469.043 2589.64,467.8Z" style="fill:rgb(13,47,115);"/>
            </g>
            <g transform="matrix(0.762906,-0.138038,0.127224,0.703143,-1745.57,883.587)">
                <path d="M2599.11,131.892C2605.24,127.506 2612.76,124.924 2620.87,124.924C2628.98,124.924 2636.49,127.506 2642.62,131.892C2636.49,136.278 2628.98,138.86 2620.87,138.86C2612.76,138.86 2605.24,136.278 2599.11,131.892Z" style="fill:none;stroke:rgb(13,47,115);stroke-width:4.83px;"/>
            </g>
            <g transform="matrix(0.578462,-0.516199,0.475762,0.533148,-1303.16,1938.99)">
                <path d="M2599.11,131.892C2605.24,127.506 2612.76,124.924 2620.87,124.924C2628.98,124.924 2636.49,127.506 2642.62,131.892C2636.49,136.278 2628.98,138.86 2620.87,138.86C2612.76,138.86 2605.24,136.278 2599.11,131.892Z" style="fill:none;stroke:rgb(13,47,115);stroke-width:4.83px;"/>
            </g>
            <g transform="matrix(0.662553,0.402622,-0.371082,0.610651,-1450.68,-508.098)">
                <path d="M2599.11,131.892C2605.24,127.506 2612.76,124.924 2620.87,124.924C2628.98,124.924 2636.49,127.506 2642.62,131.892C2636.49,136.278 2628.98,138.86 2620.87,138.86C2612.76,138.86 2605.24,136.278 2599.11,131.892Z" style="fill:none;stroke:rgb(13,47,115);stroke-width:4.83px;"/>
            </g>
            <g transform="matrix(0.774943,-0.0233034,0.0214779,0.714237,-1752.38,539.972)">
                <path d="M2599.11,131.892C2605.24,127.506 2612.76,124.924 2620.87,124.924C2628.98,124.924 2636.49,127.506 2642.62,131.892C2636.49,136.278 2628.98,138.86 2620.87,138.86C2612.76,138.86 2605.24,136.278 2599.11,131.892Z" style="fill:none;stroke:rgb(13,47,115);stroke-width:4.83px;"/>
            </g>
            <g transform="matrix(0.710581,0.310089,-0.285797,0.654917,-1514.65,-350.134)">
                <path d="M2599.11,131.892C2605.24,127.506 2612.76,124.924 2620.87,124.924C2628.98,124.924 2636.49,127.506 2642.62,131.892C2636.49,136.278 2628.98,138.86 2620.87,138.86C2612.76,138.86 2605.24,136.278 2599.11,131.892Z" style="fill:none;stroke:rgb(13,47,115);stroke-width:4.83px;"/>
            </g>
            <g transform="matrix(0.353696,0.689913,-0.635867,0.325988,-517.671,-1338.14)">
                <path d="M2599.11,131.892C2605.24,127.506 2612.76,124.924 2620.87,124.924C2628.98,124.924 2636.49,127.506 2642.62,131.892C2636.49,136.278 2628.98,138.86 2620.87,138.86C2612.76,138.86 2605.24,136.278 2599.11,131.892Z" style="fill:none;stroke:rgb(13,47,115);stroke-width:4.83px;"/>
            </g>
            <g transform="matrix(0.750128,0.195931,-0.180582,0.691365,-1620.2,-123.112)">
                <path d="M2599.11,131.892C2605.24,127.506 2612.76,124.924 2620.87,124.924C2628.98,124.924 2636.49,127.506 2642.62,131.892C2636.49,136.278 2628.98,138.86 2620.87,138.86C2612.76,138.86 2605.24,136.278 2599.11,131.892Z" style="fill:none;stroke:rgb(13,47,115);stroke-width:4.83px;"/>
            </g>
            <g transform="matrix(-0.730594,0.259446,-0.239122,-0.673362,2171.8,-0.275597)">
                <path d="M2599.11,131.892C2605.24,127.506 2612.76,124.924 2620.87,124.924C2628.98,124.924 2636.49,127.506 2642.62,131.892C2636.49,136.278 2628.98,138.86 2620.87,138.86C2612.76,138.86 2605.24,136.278 2599.11,131.892Z" style="fill:none;stroke:rgb(13,47,115);stroke-width:4.83px;"/>
            </g>
            <g transform="matrix(-2.30889,1.75333,-1.62697,-2.14249,7149.89,-2594.63)">
                <ellipse cx="2552.74" cy="599.933" rx="2.173" ry="1.464" style="fill:none;stroke:rgb(13,47,115);stroke-width:1.29px;stroke-linecap:butt;"/>
            </g>
            <g transform="matrix(-2.30889,1.75333,-1.62697,-2.14249,7134.68,-2551.33)">
                <ellipse cx="2552.74" cy="599.933" rx="2.173" ry="1.464" style="fill:none;stroke:rgb(13,47,115);stroke-width:1.29px;stroke-linecap:butt;"/>
            </g>
            <g transform="matrix(1.47078,2.49839,-2.31833,1.36478,-2055.02,-6629.34)">
                <ellipse cx="2552.74" cy="599.933" rx="2.173" ry="1.464" style="fill:none;stroke:rgb(13,47,115);stroke-width:1.29px;stroke-linecap:butt;"/>
            </g>
            <g transform="matrix(1.47078,2.49839,-2.31833,1.36478,-2056.16,-6679.92)">
                <ellipse cx="2552.74" cy="599.933" rx="2.173" ry="1.464" style="fill:none;stroke:rgb(13,47,115);stroke-width:1.29px;stroke-linecap:butt;"/>
            </g>
            <g transform="matrix(1.47078,2.49839,-2.31833,1.36478,-2124.39,-6591.3)">
                <ellipse cx="2552.74" cy="599.933" rx="2.173" ry="1.464" style="fill:none;stroke:rgb(13,47,115);stroke-width:1.29px;stroke-linecap:butt;"/>
            </g>
            <g transform="matrix(1,0,0,1,-2244.92,64.2208)">
                <circle cx="2487.5" cy="467.8" r="31.358" style="fill:none;stroke:rgb(13,47,115);stroke-width:3.6px;"/>
            </g>
            <g transform="matrix(7.20626e-16,-0.603367,0.603367,7.20626e-16,264.726,451.165)">
                <path d="M36.701,0C36.701,-20.269 20.269,-36.701 -0,-36.701C-17.437,-36.701 -31.572,-22.566 -31.572,-5.129C-31.572,8.926 -20.178,20.319 -6.124,20.319C4.549,20.319 13.2,11.667 13.2,0.995C13.2,-6.296 7.29,-12.206 -0,-12.206C-3.908,-12.206 -7.077,-9.037 -7.077,-5.129C-7.077,-5.051 -7.067,-4.974 -7.048,-4.898" style="fill:none;stroke:rgb(13,47,115);stroke-width:5.97px;"/>
            </g>
            <g transform="matrix(1,0,0,1,-2244.92,-7.58209)">
                <path d="M2509.65,436.603L2581.88,436.603" style="fill:none;stroke:rgb(13,47,115);stroke-width:3.6px;"/>
            </g>
            <g transform="matrix(1,0,0,0.399116,-2244.92,279.518)">
                <path d="M2509.65,477.796L2509.65,577.199" style="fill:none;stroke:rgb(13,47,115);stroke-width:4.73px;stroke-linecap:butt;"/>
            </g>
            <g transform="matrix(1,0,0,0.189787,-2244.92,463.155)">
                <path d="M2509.65,477.796L2509.65,577.199" style="fill:none;stroke:rgb(13,47,115);stroke-width:5px;stroke-linecap:butt;"/>
            </g>
            <g transform="matrix(1,0,0,0.944621,-2222.36,-0.268671)">
                <path d="M2509.65,477.796L2509.65,577.199" style="fill:none;stroke:rgb(13,47,115);stroke-width:3.7px;"/>
            </g>
            <g transform="matrix(1,0,0,0.175194,-2197.97,367.361)">
                <path d="M2509.65,477.796L2509.65,577.199" style="fill:none;stroke:rgb(13,47,115);stroke-width:5.01px;"/>
            </g>
            <g transform="matrix(1,0,0,0.0703964,-2172.37,417.433)">
                <path d="M2509.65,477.796L2509.65,577.199" style="fill:none;stroke:rgb(13,47,115);stroke-width:5.08px;"/>
            </g>
            <g transform="matrix(1.00894,0,0,1,-2267.79,-6.13164)">
                <path d="M2532.43,457.199L2589.74,457.199" style="fill:none;stroke:rgb(13,47,115);stroke-width:3.58px;"/>
            </g>
        </g>
    </g>
</svg>
